<?xml version="1.0" encoding="UTF-8"?>
<svg xmlns="http://www.w3.org/2000/svg" xmlns:xlink="http://www.w3.org/1999/xlink" viewBox="0 0 729.61 359.9">
  <defs>
    <style>
      .cls-1 {
        stroke: url(#Unbenannter_Verlauf_7-6);
      }

      .cls-1, .cls-2, .cls-3, .cls-4, .cls-5, .cls-6, .cls-7, .cls-8, .cls-9, .cls-10, .cls-11, .cls-12, .cls-13, .cls-14, .cls-15, .cls-16, .cls-17, .cls-18, .cls-19, .cls-20, .cls-21, .cls-22, .cls-23, .cls-24, .cls-25, .cls-26, .cls-27, .cls-28, .cls-29, .cls-30, .cls-31, .cls-32 {
        fill: none;
        stroke-miterlimit: 10;
        stroke-width: 1.44px;
      }

      .cls-2 {
        stroke: url(#Unbenannter_Verlauf_10-5);
      }

      .cls-3 {
        stroke: url(#Unbenannter_Verlauf_10-10);
      }

      .cls-4 {
        stroke: url(#Unbenannter_Verlauf_7-14);
      }

      .cls-5 {
        stroke: url(#Unbenannter_Verlauf_10-14);
      }

      .cls-33 {
        opacity: .06;
      }

      .cls-33, .cls-34, .cls-35, .cls-36, .cls-37, .cls-38 {
        fill: #e20613;
        stroke-width: 0px;
      }

      .cls-6 {
        stroke: url(#Unbenannter_Verlauf_10-13);
      }

      .cls-7 {
        stroke: url(#Unbenannter_Verlauf_10-9);
      }

      .cls-39 {
        fill: #2d5375;
        font-family: MyriadPro-Bold, 'Myriad Pro';
        font-size: 106.61px;
        font-weight: 700;
      }

      .cls-8 {
        stroke: url(#Unbenannter_Verlauf_7-2);
      }

      .cls-9 {
        stroke: url(#Unbenannter_Verlauf_10-15);
      }

      .cls-10 {
        stroke: url(#Unbenannter_Verlauf_7-11);
      }

      .cls-11 {
        stroke: url(#Unbenannter_Verlauf_10-6);
      }

      .cls-12 {
        stroke: url(#Unbenannter_Verlauf_10-16);
      }

      .cls-34 {
        opacity: .75;
      }

      .cls-35 {
        opacity: .36;
      }

      .cls-13 {
        stroke: url(#Unbenannter_Verlauf_7-3);
      }

      .cls-14 {
        stroke: url(#Unbenannter_Verlauf_10-12);
      }

      .cls-15 {
        stroke: url(#Unbenannter_Verlauf_7-5);
      }

      .cls-16 {
        stroke: url(#Unbenannter_Verlauf_7-8);
      }

      .cls-17 {
        stroke: url(#Unbenannter_Verlauf_7);
      }

      .cls-18 {
        stroke: url(#Unbenannter_Verlauf_10-3);
      }

      .cls-19 {
        stroke: url(#Unbenannter_Verlauf_7-16);
      }

      .cls-40 {
        letter-spacing: 0em;
      }

      .cls-20 {
        stroke: url(#Unbenannter_Verlauf_10-4);
      }

      .cls-21 {
        stroke: url(#Unbenannter_Verlauf_7-15);
      }

      .cls-41 {
        letter-spacing: 0em;
      }

      .cls-22 {
        stroke: url(#Unbenannter_Verlauf_10-7);
      }

      .cls-23 {
        stroke: url(#Unbenannter_Verlauf_7-12);
      }

      .cls-24 {
        stroke: url(#Unbenannter_Verlauf_10);
      }

      .cls-25 {
        stroke: url(#Unbenannter_Verlauf_7-9);
      }

      .cls-37 {
        opacity: .18;
      }

      .cls-26 {
        stroke: url(#Unbenannter_Verlauf_7-10);
      }

      .cls-27 {
        stroke: url(#Unbenannter_Verlauf_10-2);
      }

      .cls-42 {
        opacity: .89;
      }

      .cls-28 {
        stroke: url(#Unbenannter_Verlauf_7-13);
      }

      .cls-29 {
        stroke: url(#Unbenannter_Verlauf_10-8);
      }

      .cls-30 {
        stroke: url(#Unbenannter_Verlauf_7-4);
      }

      .cls-38 {
        opacity: .57;
      }

      .cls-31 {
        stroke: url(#Unbenannter_Verlauf_7-7);
      }

      .cls-32 {
        stroke: url(#Unbenannter_Verlauf_10-11);
      }
    </style>
    <linearGradient id="Unbenannter_Verlauf_7" data-name="Unbenannter Verlauf 7" x1="-685.07" y1="283.02" x2="-402.98" y2="283.02" gradientTransform="translate(1057.87 -61.72) skewX(.02)" gradientUnits="userSpaceOnUse">
      <stop offset=".49" stop-color="#2d5375"/>
      <stop offset=".58" stop-color="#2f5373"/>
      <stop offset=".65" stop-color="#385670"/>
      <stop offset=".7" stop-color="#485b6a"/>
      <stop offset=".75" stop-color="#5d6162"/>
      <stop offset=".8" stop-color="#796958"/>
      <stop offset=".8" stop-color="#7a6a58"/>
      <stop offset=".98" stop-color="#fff" stop-opacity="0"/>
    </linearGradient>
    <linearGradient id="Unbenannter_Verlauf_7-2" data-name="Unbenannter Verlauf 7" x1="-685.06" y1="275.4" x2="-403.59" y2="275.4" xlink:href="#Unbenannter_Verlauf_7"/>
    <linearGradient id="Unbenannter_Verlauf_7-3" data-name="Unbenannter Verlauf 7" x1="-685.05" y1="268.02" x2="-404.21" y2="268.02" xlink:href="#Unbenannter_Verlauf_7"/>
    <linearGradient id="Unbenannter_Verlauf_7-4" data-name="Unbenannter Verlauf 7" x1="-685.7" y1="260.46" x2="-404.81" y2="260.46" xlink:href="#Unbenannter_Verlauf_7"/>
    <linearGradient id="Unbenannter_Verlauf_7-5" data-name="Unbenannter Verlauf 7" x1="-685" y1="252.39" x2="-405.04" y2="252.39" xlink:href="#Unbenannter_Verlauf_7"/>
    <linearGradient id="Unbenannter_Verlauf_7-6" data-name="Unbenannter Verlauf 7" x1="-685" y1="244.9" x2="-405.64" y2="244.9" xlink:href="#Unbenannter_Verlauf_7"/>
    <linearGradient id="Unbenannter_Verlauf_7-7" data-name="Unbenannter Verlauf 7" x1="-685.05" y1="237.77" x2="-406.26" y2="237.77" xlink:href="#Unbenannter_Verlauf_7"/>
    <linearGradient id="Unbenannter_Verlauf_7-8" data-name="Unbenannter Verlauf 7" x1="-685.11" y1="230.7" x2="-406.87" y2="230.7" xlink:href="#Unbenannter_Verlauf_7"/>
    <linearGradient id="Unbenannter_Verlauf_7-9" data-name="Unbenannter Verlauf 7" x1="-685.08" y1="351.25" x2="-398.94" y2="351.25" xlink:href="#Unbenannter_Verlauf_7"/>
    <linearGradient id="Unbenannter_Verlauf_7-10" data-name="Unbenannter Verlauf 7" x1="-685.03" y1="342.2" x2="-399.54" y2="342.2" xlink:href="#Unbenannter_Verlauf_7"/>
    <linearGradient id="Unbenannter_Verlauf_7-11" data-name="Unbenannter Verlauf 7" x1="-685.08" y1="333.38" x2="-400.16" y2="333.38" xlink:href="#Unbenannter_Verlauf_7"/>
    <linearGradient id="Unbenannter_Verlauf_7-12" data-name="Unbenannter Verlauf 7" x1="-685" y1="324.33" x2="-400.77" y2="324.33" xlink:href="#Unbenannter_Verlauf_7"/>
    <linearGradient id="Unbenannter_Verlauf_7-13" data-name="Unbenannter Verlauf 7" x1="-685.09" y1="314.83" x2="-400.99" y2="314.83" xlink:href="#Unbenannter_Verlauf_7"/>
    <linearGradient id="Unbenannter_Verlauf_7-14" data-name="Unbenannter Verlauf 7" x1="-685.08" y1="306.34" x2="-401.6" y2="306.34" xlink:href="#Unbenannter_Verlauf_7"/>
    <linearGradient id="Unbenannter_Verlauf_7-15" data-name="Unbenannter Verlauf 7" x1="-685.08" y1="298.8" x2="-402.22" y2="298.8" xlink:href="#Unbenannter_Verlauf_7"/>
    <linearGradient id="Unbenannter_Verlauf_10" data-name="Unbenannter Verlauf 10" x1="-1038.94" y1="270.65" x2="-729.56" y2="270.65" gradientTransform="translate(1057.87 -61.72) skewX(.02)" gradientUnits="userSpaceOnUse">
      <stop offset=".03" stop-color="#fff" stop-opacity="0"/>
      <stop offset=".18" stop-color="#7a6a58"/>
      <stop offset=".25" stop-color="#5f6261"/>
      <stop offset=".34" stop-color="#43596c"/>
      <stop offset=".43" stop-color="#325472"/>
      <stop offset=".49" stop-color="#2d5375"/>
    </linearGradient>
    <linearGradient id="Unbenannter_Verlauf_10-2" data-name="Unbenannter Verlauf 10" x1="-1036.32" y1="263.77" x2="-729.54" y2="263.77" xlink:href="#Unbenannter_Verlauf_10"/>
    <linearGradient id="Unbenannter_Verlauf_10-3" data-name="Unbenannter Verlauf 10" x1="-1033.79" y1="256.99" x2="-729.53" y2="256.99" xlink:href="#Unbenannter_Verlauf_10"/>
    <linearGradient id="Unbenannter_Verlauf_10-4" data-name="Unbenannter Verlauf 10" x1="-1031.18" y1="250.05" x2="-729.57" y2="250.05" xlink:href="#Unbenannter_Verlauf_10"/>
    <linearGradient id="Unbenannter_Verlauf_10-5" data-name="Unbenannter Verlauf 10" x1="-1028.15" y1="243.38" x2="-729.5" y2="243.38" xlink:href="#Unbenannter_Verlauf_10"/>
    <linearGradient id="Unbenannter_Verlauf_10-6" data-name="Unbenannter Verlauf 10" x1="-1025.54" y1="236.35" x2="-729.49" y2="236.35" xlink:href="#Unbenannter_Verlauf_10"/>
    <linearGradient id="Unbenannter_Verlauf_10-7" data-name="Unbenannter Verlauf 10" x1="-1023.01" y1="229.17" x2="-729.47" y2="229.17" xlink:href="#Unbenannter_Verlauf_10"/>
    <linearGradient id="Unbenannter_Verlauf_10-8" data-name="Unbenannter Verlauf 10" x1="-1020.4" y1="220.82" x2="-729.46" y2="220.82" xlink:href="#Unbenannter_Verlauf_10"/>
    <linearGradient id="Unbenannter_Verlauf_10-9" data-name="Unbenannter Verlauf 10" x1="-1060.5" y1="328.63" x2="-729.63" y2="328.63" xlink:href="#Unbenannter_Verlauf_10"/>
    <linearGradient id="Unbenannter_Verlauf_10-10" data-name="Unbenannter Verlauf 10" x1="-1057.88" y1="320.08" x2="-729.63" y2="320.08" xlink:href="#Unbenannter_Verlauf_10"/>
    <linearGradient id="Unbenannter_Verlauf_10-11" data-name="Unbenannter Verlauf 10" x1="-1055.35" y1="311.68" x2="-729.69" y2="311.68" xlink:href="#Unbenannter_Verlauf_10"/>
    <linearGradient id="Unbenannter_Verlauf_10-12" data-name="Unbenannter Verlauf 10" x1="-1052.74" y1="303.71" x2="-729.61" y2="303.71" xlink:href="#Unbenannter_Verlauf_10"/>
    <linearGradient id="Unbenannter_Verlauf_10-13" data-name="Unbenannter Verlauf 10" x1="-1049.71" y1="297.27" x2="-729.6" y2="297.27" xlink:href="#Unbenannter_Verlauf_10"/>
    <linearGradient id="Unbenannter_Verlauf_10-14" data-name="Unbenannter Verlauf 10" x1="-1047.1" y1="290.49" x2="-729.59" y2="290.49" xlink:href="#Unbenannter_Verlauf_10"/>
    <linearGradient id="Unbenannter_Verlauf_10-15" data-name="Unbenannter Verlauf 10" x1="-1044.57" y1="283.81" x2="-729.63" y2="283.81" xlink:href="#Unbenannter_Verlauf_10"/>
    <linearGradient id="Unbenannter_Verlauf_10-16" data-name="Unbenannter Verlauf 10" x1="-1041.96" y1="276.98" x2="-729.57" y2="276.98" xlink:href="#Unbenannter_Verlauf_10"/>
    <linearGradient id="Unbenannter_Verlauf_7-16" data-name="Unbenannter Verlauf 7" x1="-685.08" y1="291.1" x2="-402.82" y2="291.1" xlink:href="#Unbenannter_Verlauf_7"/>
  </defs>
  <g id="Ebene_1" data-name="Ebene 1">
    <path class="cls-17" d="m655.51,243.33c-39.91-27.38-104.04,51.34-187.15-26.96-25.89-24.39-59.54-28.83-93.78-24.78"/>
    <path class="cls-8" d="m654.9,232.23c-39.91-27.38-110.59,55.31-193.7-22.99-24.79-23.36-55.54-28.35-86.62-25.09"/>
    <path class="cls-13" d="m654.28,221.41c-39.91-27.38-116.97,59.21-200.07-19.09-23.61-22.24-51.57-27.78-79.62-25.37"/>
    <path class="cls-30" d="m653.68,210.31c-39.91-27.38-123.51,63.18-206.62-15.12-22.25-20.97-47.43-27.04-72.47-25.57-.09,0-.18.01-.27.02"/>
    <path class="cls-15" d="m653.45,198.79c-39.91-27.38-130.46,66.93-213.57-11.37-20.76-19.55-43.21-26.04-65.3-25.49"/>
    <path class="cls-1" d="m652.85,187.69c-39.91-27.38-137.01,70.9-220.12-7.39-19.07-17.97-38.88-24.86-58.14-25.38"/>
    <path class="cls-31" d="m652.22,176.86c-39.91-27.38-143.39,74.81-226.5-3.49-17.24-16.24-34.53-23.41-51.14-24.98"/>
    <path class="cls-16" d="m651.62,165.76c-39.91-27.38-149.94,78.78-233.05.48-15.18-14.3-29.95-21.54-43.99-24.1"/>
    <path class="cls-25" d="m659.56,332.23c-39.91-27.38-51.29,20.24-134.4-58.06-31.59-29.76-90-30.97-150.57-23.55"/>
    <path class="cls-26" d="m658.95,321.13c-39.91-27.38-57.84,24.21-140.95-54.09-31.06-29.26-86.2-30.81-143.37-23.68"/>
    <path class="cls-10" d="m658.33,310.31c-39.91-27.38-64.22,28.11-147.33-50.19-30.51-28.75-82.53-30.66-136.42-23.85"/>
    <path class="cls-23" d="m657.73,299.21c-39.91-27.38-70.77,32.08-153.87-46.22-29.88-28.15-78.69-30.48-129.19-24.04"/>
    <path class="cls-28" d="m657.5,287.69c-39.91-27.38-77.71,35.83-160.82-42.47-29.25-27.55-74.93-30.15-122.09-23.94"/>
    <path class="cls-4" d="m656.89,276.59c-39.91-27.38-84.26,39.8-167.37-38.49-28.51-26.86-71.09-29.91-114.94-24.19"/>
    <path class="cls-21" d="m656.27,265.76c-39.91-27.38-90.64,43.71-173.75-34.59-27.72-26.11-67.3-29.65-107.94-24.48"/>
    <g>
      <path class="cls-24" d="m329.93,200.82c-59.18,16.48-110.29,43.94-113.25,18.53-8.86-75.99-134.93,13.48-194.87-15.35"/>
      <path class="cls-27" d="m329.93,193.54c-56.25,16.63-104.2,45.08-107.19,19.43-8.86-75.99-138.39,9.6-198.33-19.23"/>
      <path class="cls-18" d="m329.93,186.36c-53.43,16.72-98.26,46.25-101.28,20.34-8.86-75.99-141.78,5.83-201.72-23.01"/>
      <path class="cls-20" d="m329.88,178.95c-50.56,16.81-92.11,47.58-95.16,21.37-8.86-75.98-145.24,1.95-205.18-26.89"/>
      <path class="cls-2" d="m329.93,171.21c-47.64,17.15-85.72,49.67-88.82,23.11-8.86-75.99-148.61-2.24-208.55-31.08"/>
      <path class="cls-11" d="m329.93,163.56c-44.92,17.12-79.61,51.35-82.76,24.37-8.86-75.99-152.07-6.13-212.01-34.96"/>
      <path class="cls-22" d="m329.93,155.98c-42.37,16.97-73.65,53.14-76.85,25.69-8.86-75.98-155.46-9.9-215.4-38.74"/>
      <path class="cls-29" d="m329.93,148.06c-39.89,16.69-67.51,55.25-70.78,27.22-8.86-75.98-158.92-13.78-218.86-42.62"/>
      <path class="cls-7" d="m329.93,257.34c-83.33,14.47-159.2,36.1-162.02,11.88-8.86-75.99-107.66,44.89-167.6,16.05"/>
      <path class="cls-3" d="m329.93,250.36c-80.29,14.67-153.12,36.81-155.96,12.48-8.86-75.99-111.12,41.01-171.06,12.17"/>
      <path class="cls-32" d="m329.86,243.53c-77.3,14.84-147.13,37.47-149.98,13.03-8.86-75.99-114.51,37.23-174.45,8.4"/>
      <path class="cls-14" d="m329.93,236.49c-74.3,15.03-141.12,38.26-143.98,13.69-8.86-75.98-117.96,33.35-177.91,4.51"/>
      <path class="cls-6" d="m329.93,229.28c-71.13,15.49-134.71,39.6-137.59,14.9-8.86-75.99-121.34,29.16-181.28.32"/>
      <path class="cls-5" d="m329.93,222.19c-68.12,15.68-128.63,40.47-131.52,15.61-8.86-75.99-124.8,25.28-184.74-3.56"/>
      <path class="cls-9" d="m329.88,215.25c-65.18,15.84-122.64,41.3-125.56,16.29-8.86-75.98-128.19,21.5-188.13-7.33"/>
      <path class="cls-12" d="m329.93,208.06c-62.23,16.01-116.61,42.3-119.55,17.09-8.86-75.98-131.65,17.62-191.59-11.21"/>
    </g>
    <path class="cls-19" d="m655.67,254.66c-39.91-27.38-97.19,47.68-180.3-30.62-26.83-25.27-63.39-29.32-100.79-24.76"/>
    <text class="cls-39" transform="translate(255.08 89.24)"><tspan class="cls-40" x="0" y="0">G</tspan><tspan x="73.35" y="0">eo</tspan><tspan class="cls-41" x="191.16" y="0">M</tspan><tspan x="281.67" y="0">etEr</tspan></text>
    <g>
      <g class="cls-42">
        <path class="cls-36" d="m556.46,108.85c-22.81,27.3-65,34.92-96.7,19.28-10.6-5.09-20.05-12.45-27.14-21.5,9.19,6.88,18.98,12.48,29.36,16.28,31.57,11.98,67.27,5.64,94.48-14.06h0Z"/>
      </g>
      <g class="cls-42">
        <path class="cls-36" d="m568.95,124.45c-29.5,34.65-84.18,42.86-123.29,19.97-13.05-7.39-24.39-17.63-32.6-29.83,10.52,10.23,22.31,18.75,35.21,24.79,39.27,19.08,86.69,12.03,120.68-14.94h0Z"/>
      </g>
      <g class="cls-42">
        <path class="cls-36" d="m584.8,135.72c-34.49,43.16-100.03,54.29-147.46,26.18-15.67-9.01-29.17-21.59-38.85-36.48,12.05,12.99,26.02,23.82,41.53,31.48,47.52,24.21,105.51,14.36,144.78-21.18h0Z"/>
      </g>
    </g>
    <polygon class="cls-36" points="373.43 307.44 352.63 359.9 331.63 307.44 373.43 307.44"/>
  </g>
  <g id="roter_Pfeil_Liniensegmente" data-name="roter Pfeil Liniensegmente">
    <g>
      <rect class="cls-36" x="331.42" y="292.19" width="41.85" height="11.29"/>
      <rect class="cls-34" x="331.45" y="278.47" width="41.85" height="10.26"/>
      <rect class="cls-38" x="331.45" y="263.87" width="41.85" height="11.15"/>
      <rect class="cls-35" x="331.45" y="250.15" width="41.85" height="10.26"/>
      <rect class="cls-37" x="331.45" y="236.23" width="41.85" height="10.26"/>
      <rect class="cls-33" x="331.45" y="222.31" width="41.85" height="10.26"/>
    </g>
  </g>
</svg>